<?xml version="1.0" standalone="no"?>
<!DOCTYPE svg PUBLIC "-//W3C//DTD SVG 20010904//EN"
 "http://www.w3.org/TR/2001/REC-SVG-20010904/DTD/svg10.dtd">
<svg version="1.0" xmlns="http://www.w3.org/2000/svg"
 width="2048.000000pt" height="2048.000000pt" viewBox="0 0 2048.000000 2048.000000"
 preserveAspectRatio="xMidYMid meet">
<metadata>
Created by potrace 1.14, written by Peter Selinger 2001-2017
</metadata>
<g transform="translate(0.000000,2048.000000) scale(0.100000,-0.100000)"
fill="#000000" stroke="none">
<path d="M9710 15839 c0 -6 -4 -7 -10 -4 -5 3 -10 1 -10 -5 0 -7 -7 -9 -16 -6
-14 5 -15 4 -4 -9 7 -8 10 -16 6 -16 -3 -1 -10 -2 -15 -3 -5 0 -13 -5 -18 -10
-5 -5 -3 -6 5 -2 6 4 12 2 12 -5 0 -7 -8 -9 -21 -6 -16 4 -18 3 -9 -8 8 -9 5
-14 -11 -18 -12 -3 -18 -10 -14 -16 3 -7 -2 -11 -14 -11 -12 0 -21 -5 -21 -11
0 -6 -7 -9 -15 -5 -8 3 -15 1 -15 -5 0 -6 -5 -7 -12 -3 -7 5 -8 3 -4 -5 5 -7
15 -10 23 -7 8 4 11 1 8 -5 -4 -6 -14 -8 -22 -5 -9 4 -17 -1 -20 -14 -4 -15
-9 -18 -18 -10 -11 9 -12 6 -8 -11 4 -13 2 -20 -3 -16 -6 3 -15 -3 -22 -14 -8
-12 -9 -19 -1 -19 5 0 8 -4 4 -9 -3 -6 -14 -8 -25 -6 -12 2 -18 0 -15 -6 4 -5
0 -12 -9 -15 -8 -3 -12 -12 -9 -20 3 -9 0 -12 -9 -9 -8 3 -21 -1 -28 -9 -7 -9
-17 -13 -23 -9 -6 4 -7 1 -3 -6 6 -9 13 -8 27 5 18 16 19 16 13 1 -3 -9 -10
-17 -16 -17 -5 0 -7 -4 -4 -9 3 -4 -6 -7 -19 -5 -18 1 -25 -3 -26 -14 0 -11
-2 -12 -6 -4 -8 19 -22 14 -18 -7 4 -22 -16 -43 -35 -39 -7 2 -15 -4 -17 -12
-4 -13 -3 -13 6 0 6 8 11 10 11 4 0 -6 -7 -17 -15 -24 -11 -9 -15 -9 -15 -1 0
7 -4 10 -10 6 -5 -3 -7 -12 -3 -20 3 -9 -1 -15 -10 -15 -9 0 -19 -5 -23 -12
-4 -6 -3 -8 2 -5 5 3 10 -3 10 -13 0 -14 -3 -16 -13 -8 -10 8 -12 7 -8 -4 3
-8 -2 -21 -12 -29 -17 -13 -17 -13 -3 6 11 16 11 17 0 8 -17 -16 -23 -46 -7
-36 7 4 6 0 -1 -10 -8 -9 -12 -26 -11 -39 2 -13 0 -29 -4 -35 -5 -8 -3 -13 4
-13 9 0 10 -3 2 -11 -6 -6 -7 -25 -3 -49 4 -24 3 -43 -3 -49 -8 -8 -7 -11 1
-11 9 0 10 -5 4 -16 -5 -9 -6 -32 -2 -50 4 -19 4 -34 0 -34 -5 0 -3 -12 5 -27
8 -15 12 -30 9 -35 -3 -4 0 -8 7 -8 7 0 9 -3 6 -7 -4 -3 -2 -12 4 -20 6 -7 9
-22 6 -33 -3 -11 -1 -20 5 -20 5 0 7 -4 4 -9 -3 -5 3 -20 14 -34 11 -14 20
-34 20 -46 0 -15 5 -19 18 -15 16 5 16 5 0 -9 -14 -11 -15 -16 -5 -27 10 -10
9 -11 -2 -5 -11 6 -13 4 -7 -10 6 -16 4 -16 -11 -4 -10 7 -15 10 -11 5 12 -14
-15 -35 -30 -24 -9 8 -11 7 -6 -7 5 -13 4 -16 -4 -11 -7 4 -12 3 -12 -3 0 -6
-7 -8 -15 -5 -8 4 -15 1 -15 -5 0 -6 -11 -11 -24 -11 -14 0 -28 -5 -32 -12 -4
-6 -3 -8 3 -5 5 3 10 0 10 -8 0 -8 -5 -11 -11 -8 -13 9 -121 7 -135 -1 -5 -4
-12 -2 -16 4 -4 6 -11 8 -16 5 -5 -4 -9 -1 -9 6 0 7 -7 4 -15 -7 -8 -10 -15
-14 -15 -8 0 7 -7 15 -16 18 -8 3 -12 2 -9 -4 7 -11 -26 -5 -56 10 -12 7 -19
8 -15 2 4 -7 -5 -6 -23 1 -17 6 -27 16 -24 21 3 6 0 6 -7 -1 -10 -9 -18 -6
-36 12 -20 20 -30 22 -63 16 -2 -1 2 -8 9 -16 7 -8 9 -15 6 -15 -4 0 9 -16 28
-35 40 -39 48 -43 40 -17 -5 14 -3 14 10 -2 9 -11 16 -17 16 -13 0 4 11 0 25
-9 13 -8 29 -13 35 -9 5 3 13 -1 16 -10 5 -12 9 -13 20 -4 10 8 18 8 27 1 7
-5 21 -6 32 -1 11 4 14 8 6 8 -8 1 -12 4 -8 7 3 3 12 2 19 -2 7 -5 17 -9 22
-9 5 0 11 -10 12 -23 4 -22 -26 -62 -46 -62 -5 0 -10 -4 -10 -8 0 -5 -13 -8
-30 -7 -16 1 -27 -2 -24 -6 2 -4 -2 -14 -10 -22 -8 -8 -12 -18 -8 -23 4 -5 0
-3 -9 4 -14 10 -16 9 -14 -12 2 -19 -1 -23 -16 -19 -11 3 -19 0 -19 -6 0 -7 6
-9 13 -5 7 4 9 3 4 -2 -5 -5 -12 -9 -15 -9 -18 -1 -31 -17 -25 -32 5 -11 3
-14 -6 -8 -10 6 -11 3 -2 -14 9 -17 9 -21 -3 -21 -9 0 -12 -7 -9 -20 3 -11 9
-17 14 -14 5 3 6 -2 3 -11 -4 -9 -12 -14 -20 -11 -8 3 -11 -2 -9 -14 2 -12 -3
-21 -16 -25 -20 -7 -20 -7 -2 -21 17 -13 17 -13 -2 -14 -12 0 -16 -3 -9 -8 6
-4 13 -15 17 -25 4 -11 12 -15 18 -11 8 4 9 3 5 -4 -4 -7 -2 -12 5 -12 7 0 4
-7 -7 -16 -10 -8 -14 -13 -8 -10 6 3 11 -1 11 -9 0 -8 -4 -12 -9 -9 -4 3 -8 0
-8 -6 0 -6 -5 -8 -12 -4 -8 5 -9 2 -5 -9 3 -10 2 -17 -3 -17 -5 0 -7 -6 -4
-14 3 -8 0 -17 -7 -22 -8 -4 -10 -3 -5 4 4 7 3 12 -3 12 -5 0 -11 -10 -13 -22
-2 -13 -9 -22 -17 -20 -11 2 -12 0 -3 -11 10 -11 9 -17 -3 -27 -8 -7 -13 -16
-10 -20 3 -5 -5 -6 -17 -2 -21 5 -22 4 -9 -11 12 -15 11 -17 -3 -17 -12 0 -15
-7 -12 -26 4 -23 3 -24 -11 -12 -12 9 -15 9 -9 1 4 -8 2 -13 -4 -13 -6 0 -8
-4 -5 -10 3 -5 1 -10 -6 -10 -8 0 -8 -4 1 -15 10 -12 10 -15 -4 -15 -8 0 -18
-11 -22 -25 -3 -14 -10 -25 -14 -25 -5 0 -10 -10 -12 -22 -2 -13 -9 -22 -15
-21 -6 1 -10 -4 -9 -13 1 -8 5 -14 9 -14 14 1 34 -25 30 -38 -4 -10 -10 -9
-24 4 -17 15 -18 15 -13 -12 3 -15 7 -31 10 -36 3 -5 0 -7 -8 -6 -7 2 -12 -2
-11 -9 2 -7 -4 -10 -12 -7 -10 4 -15 0 -15 -13 0 -10 -5 -24 -12 -31 -8 -8 -8
-15 3 -29 13 -16 12 -17 -3 -4 -16 12 -18 11 -18 -8 0 -11 -5 -21 -11 -21 -5
0 -7 6 -3 13 5 8 2 8 -9 -2 -18 -15 -23 -26 -7 -16 6 3 10 1 10 -5 0 -6 4 -9
9 -5 5 3 12 1 16 -5 11 -17 20 -11 32 21 8 21 17 30 26 26 9 -3 14 1 13 10 0
8 8 20 19 27 11 6 23 16 27 21 5 6 8 5 8 -2 0 -7 5 -13 11 -13 5 0 7 6 3 13
-6 9 -4 9 8 -1 16 -13 14 -45 -4 -68 -4 -6 -6 -19 -2 -28 4 -9 1 -16 -6 -16
-9 0 -9 -4 -2 -13 7 -8 7 -18 2 -27 -5 -9 -5 -19 1 -26 7 -8 6 -14 -1 -19 -8
-5 -8 -10 0 -20 8 -10 8 -15 0 -20 -8 -5 -8 -10 0 -20 8 -9 8 -15 0 -20 -6 -3
-7 -12 -3 -18 9 -15 11 -47 3 -47 -6 0 -5 -41 0 -47 6 -7 5 -30 -1 -43 -5 -10
0 -25 13 -40 l20 -25 -16 30 -17 30 20 -24 c12 -12 18 -27 15 -32 -2 -5 0 -18
7 -30 7 -15 8 -19 0 -15 -8 5 -8 0 -1 -18 7 -18 6 -26 -1 -26 -8 0 -8 -4 0
-14 6 -7 12 -25 13 -39 1 -15 9 -29 16 -32 11 -4 12 -8 3 -19 -10 -11 -8 -16
5 -24 10 -6 15 -16 11 -25 -3 -9 -2 -19 3 -22 6 -3 15 -15 21 -27 8 -16 8 -19
-1 -13 -7 4 -4 -4 5 -19 15 -23 15 -26 2 -32 -9 -3 -13 -12 -10 -20 3 -8 1
-14 -5 -14 -5 0 -13 -7 -16 -16 -3 -8 -2 -12 4 -9 6 3 10 2 10 -4 0 -5 -5 -11
-12 -13 -6 -2 -12 -20 -12 -40 -1 -19 -5 -34 -11 -32 -6 3 -10 -13 -10 -36 0
-22 4 -40 8 -40 4 0 3 -9 -3 -20 -6 -11 -7 -20 -3 -20 5 0 8 -21 8 -46 0 -25
4 -48 9 -52 5 -3 6 1 1 9 -5 8 -4 11 0 6 5 -4 10 -18 12 -30 5 -37 12 -49 24
-41 8 5 9 2 1 -12 -8 -14 -7 -23 5 -36 11 -12 12 -18 4 -18 -9 0 -9 -5 -1 -20
8 -14 8 -20 0 -20 -8 0 -8 -6 0 -20 6 -11 7 -20 3 -20 -4 0 -8 -11 -8 -25 0
-14 4 -25 8 -25 4 0 3 -9 -3 -20 -8 -15 -8 -20 1 -20 8 0 8 -4 -1 -15 -9 -10
-9 -15 -1 -15 6 0 10 -6 8 -12 -1 -7 3 -12 8 -11 6 1 11 -20 12 -45 1 -26 6
-48 11 -50 4 -1 7 -16 6 -32 -1 -17 2 -30 8 -30 5 0 6 -5 3 -10 -4 -6 1 -22
10 -37 9 -14 12 -22 6 -19 -6 4 -11 2 -11 -3 0 -6 5 -11 11 -11 5 0 7 -4 4
-10 -3 -5 -2 -10 3 -10 10 0 9 -30 -1 -47 -4 -6 -2 -15 4 -19 8 -5 9 -3 4 7
-5 8 -4 11 0 6 5 -4 10 -15 11 -25 2 -9 5 -30 9 -47 3 -16 6 -35 7 -42 1 -7 5
-10 10 -7 4 3 8 -2 8 -10 0 -9 -6 -16 -12 -16 -7 -1 -4 -6 7 -13 11 -7 21 -21
22 -32 2 -11 4 -30 5 -42 1 -12 5 -20 9 -17 4 2 10 -3 13 -12 4 -10 2 -13 -7
-8 -8 6 -8 3 1 -9 8 -9 11 -20 8 -26 -3 -5 0 -11 8 -14 9 -4 12 -14 9 -26 -3
-12 -1 -21 4 -21 6 0 10 -14 11 -31 0 -17 9 -38 19 -46 11 -9 12 -12 3 -8 -10
4 -9 2 3 -8 9 -8 17 -20 18 -28 0 -8 4 -5 9 6 7 16 9 16 9 4 1 -18 31 -36 31
-19 0 6 10 6 26 0 34 -13 47 -13 38 2 -4 7 -3 8 4 4 6 -4 9 -12 6 -19 -4 -11
7 -15 54 -19 6 -1 12 -6 12 -12 0 -6 4 -6 12 2 9 9 15 7 25 -6 8 -9 11 -11 7
-3 -4 8 -3 12 2 9 5 -3 33 -13 62 -22 38 -11 51 -12 47 -3 -4 7 -1 5 7 -4 9
-11 22 -13 46 -8 18 3 34 3 37 -1 2 -4 16 -5 30 -3 15 3 22 10 18 17 -4 6 1 5
10 -3 15 -12 21 -9 18 11 0 4 8 5 19 3 12 -2 18 0 15 5 -7 12 50 42 60 32 5
-4 5 1 2 11 -5 13 -3 17 5 14 7 -2 12 -11 10 -18 -2 -8 0 -10 5 -6 8 8 9 13
12 40 0 8 8 14 16 14 8 0 12 -4 10 -8 -3 -4 1 -9 9 -12 9 -4 12 -14 9 -26 -3
-13 -1 -21 6 -21 7 0 9 -4 6 -10 -3 -5 1 -10 10 -10 9 0 13 -4 10 -10 -3 -5
-2 -10 4 -10 6 0 8 -6 5 -14 -3 -7 2 -16 10 -19 9 -4 16 -12 16 -19 0 -9 -3
-8 -10 2 -5 8 -10 11 -10 5 0 -5 11 -20 24 -33 16 -14 22 -29 19 -42 -4 -15 0
-20 13 -21 18 0 18 -1 -1 -9 -11 -5 -14 -9 -7 -9 7 -1 11 -5 7 -10 -3 -5 0
-13 6 -16 5 -4 8 -13 5 -21 -5 -13 6 -18 26 -15 5 0 7 -2 7 -7 -1 -4 -1 -15 0
-26 1 -16 3 -17 18 -5 15 13 15 12 2 -9 -9 -14 -10 -25 -4 -30 6 -4 16 -15 24
-24 11 -15 9 -21 -18 -48 -17 -18 -28 -37 -24 -45 6 -17 43 -21 43 -5 0 5 3 9
8 7 4 -1 8 3 10 8 2 6 13 15 25 22 12 7 18 13 12 13 -5 0 1 7 15 15 14 8 20
14 14 15 -6 0 -11 7 -11 15 0 9 6 14 12 11 12 -4 14 2 18 49 1 14 7 25 14 25
6 0 15 5 19 12 4 7 3 8 -4 4 -7 -4 -12 -1 -12 9 0 12 5 15 16 11 13 -5 14 -4
6 7 -8 10 -7 20 3 41 17 32 20 49 5 26 -5 -8 -10 -10 -10 -4 0 6 7 17 15 24
12 10 13 16 4 26 -9 11 -8 14 0 14 7 0 10 4 6 9 -3 5 0 13 6 17 8 4 9 3 5 -4
-4 -7 -3 -12 3 -12 5 0 11 6 13 12 3 9 9 8 21 -4 9 -9 22 -19 29 -21 10 -4 9
-8 -2 -17 -12 -9 -11 -10 8 -5 12 4 22 3 21 -2 -1 -4 -1 -15 0 -23 1 -13 2
-13 11 0 8 12 10 10 10 -8 0 -13 4 -20 10 -17 6 3 10 1 10 -5 0 -6 4 -9 9 -6
5 3 15 -2 22 -11 12 -14 12 -16 -1 -8 -13 8 -13 6 -1 -8 7 -9 17 -14 22 -11 5
3 6 -3 2 -13 -6 -16 -5 -16 11 -4 9 8 16 10 15 5 -4 -22 2 -35 13 -28 7 5 8 3
4 -5 -5 -8 0 -14 13 -18 11 -3 18 -9 15 -14 -3 -5 3 -6 12 -2 12 4 15 3 10 -6
-6 -8 -2 -11 10 -9 14 2 19 -3 18 -19 0 -18 2 -20 13 -12 10 9 13 8 13 -1 0
-7 7 -10 15 -6 10 3 18 -1 22 -12 4 -9 15 -24 24 -32 10 -8 19 -24 21 -35 2
-11 7 -23 11 -26 4 -3 10 -26 13 -50 3 -24 8 -55 10 -69 3 -14 5 -31 6 -37 1
-7 4 -13 8 -13 4 0 7 -7 7 -15 0 -8 -4 -15 -9 -15 -5 0 -4 -9 2 -20 8 -14 8
-20 0 -20 -7 0 -8 -5 -3 -12 4 -7 8 -16 9 -20 1 -5 3 -9 4 -10 1 -2 3 -36 4
-76 3 -75 21 -118 33 -74 4 16 11 21 22 17 8 -3 12 -3 8 1 -4 4 -2 13 4 20 7
8 6 14 -2 20 -8 5 -9 3 -4 -6 5 -9 4 -11 -4 -6 -9 6 -9 11 0 22 6 8 8 14 4 14
-4 0 -3 6 4 13 8 10 7 17 -1 25 -9 9 -9 12 3 12 11 0 11 2 1 9 -11 7 -11 9 2
14 9 4 16 2 16 -3 0 -6 5 -10 11 -10 5 0 7 5 3 12 -5 7 -3 8 5 3 7 -4 11 -16
8 -26 -3 -10 0 -17 7 -16 6 1 10 -4 8 -12 -3 -12 0 -12 12 -1 15 12 21 5 18
-21 -1 -4 3 -21 8 -38 5 -19 5 -33 -1 -37 -6 -4 -6 -11 2 -20 9 -11 8 -14 -2
-14 -9 0 -10 -3 -3 -8 6 -4 10 -18 9 -30 -1 -13 4 -26 11 -29 16 -6 6 -17 -38
-46 -16 -9 -27 -21 -26 -25 2 -11 -14 -46 -26 -54 -8 -6 -6 -11 4 -17 10 -7
20 -5 34 7 15 13 18 14 12 2 -4 -8 -1 -6 8 5 45 60 49 63 72 55 19 -8 22 -6
19 11 -3 17 -1 19 10 9 10 -8 15 -8 21 1 5 8 3 9 -6 4 -8 -5 -11 -4 -6 3 4 6
14 8 23 5 13 -5 15 -2 10 12 -7 16 -5 16 10 4 11 -9 14 -10 9 -1 -5 8 -1 12
11 12 15 0 16 2 3 10 -11 7 -11 10 -2 10 7 0 11 4 7 9 -3 5 0 13 6 17 8 4 9 3
5 -4 -4 -7 -2 -12 3 -12 6 0 11 11 11 25 0 16 6 25 15 25 8 0 15 5 15 11 0 5
-4 7 -10 4 -5 -3 -10 -2 -10 3 0 6 7 13 16 16 8 3 12 11 8 17 -4 8 -3 9 5 5 6
-4 8 -12 5 -18 -5 -8 -1 -9 11 -5 14 6 16 3 12 -13 -3 -11 0 -20 6 -20 8 0 8
-3 2 -8 -13 -9 -14 -72 -2 -72 5 0 4 -7 -3 -15 -7 -8 -17 -12 -23 -8 -6 3 -7
1 -3 -6 4 -6 11 -9 15 -6 5 2 2 -14 -5 -36 -8 -22 -12 -44 -9 -49 3 -5 -4 -7
-16 -5 -18 4 -19 2 -7 -12 9 -12 9 -15 1 -9 -8 4 -13 2 -13 -4 0 -6 -4 -8 -10
-5 -5 3 -10 -1 -10 -10 0 -12 -4 -14 -19 -5 -17 9 -19 7 -16 -10 2 -11 0 -22
-6 -25 -5 -4 -9 -1 -9 4 0 6 -4 11 -9 11 -4 0 -7 -11 -6 -24 2 -19 -1 -24 -15
-21 -10 2 -24 -3 -31 -11 -9 -11 -15 -12 -25 -3 -10 8 -14 8 -14 0 0 -6 -4
-11 -10 -11 -5 0 -10 8 -10 19 0 14 -6 18 -25 16 -14 -2 -27 1 -31 6 -3 5 -13
5 -25 -1 -11 -6 -19 -7 -19 -1 0 5 -13 11 -30 13 -22 3 -30 1 -30 -11 0 -14
-2 -14 -11 -1 -8 11 -12 12 -16 3 -2 -7 -11 -13 -20 -13 -25 0 -44 -25 -30
-40 9 -10 9 -11 0 -6 -6 3 -15 0 -20 -7 -4 -8 -19 -20 -32 -27 -13 -6 -21 -7
-17 -2 3 6 2 13 -3 16 -5 4 -8 -5 -7 -19 3 -20 0 -23 -14 -15 -22 12 -33 1
-18 -17 9 -12 9 -14 -3 -11 -15 3 -59 -35 -59 -52 0 -5 -7 -10 -15 -10 -8 0
-15 -5 -15 -11 0 -5 6 -7 13 -3 8 5 8 2 -2 -9 -15 -18 -26 -23 -16 -7 3 5 2
10 -3 10 -11 0 -26 -30 -23 -43 1 -5 -3 -6 -8 -2 -6 3 -7 13 -4 23 4 10 -4 6
-19 -10 -14 -15 -29 -24 -33 -20 -5 4 -5 -1 -2 -10 5 -13 1 -16 -19 -12 -16 3
-24 0 -24 -10 0 -7 -8 -20 -17 -27 -16 -13 -17 -12 -4 4 10 12 10 17 1 17 -6
0 -14 -9 -17 -20 -3 -11 -9 -18 -13 -15 -4 3 -10 -1 -13 -9 -4 -9 -14 -12 -26
-9 -19 5 -26 -4 -23 -28 1 -4 -8 -4 -20 -1 -15 4 -19 2 -13 -7 5 -10 2 -11
-13 -7 -13 5 -22 1 -26 -10 -3 -8 -11 -14 -18 -12 -6 2 -20 -4 -30 -14 -10
-10 -24 -15 -35 -11 -12 5 -15 2 -10 -10 4 -12 1 -15 -14 -12 -11 2 -17 0 -14
-4 6 -11 -23 -23 -36 -15 -5 3 -9 1 -9 -4 0 -10 -30 -9 -48 2 -7 4 -12 2 -12
-4 0 -6 -5 -8 -12 -4 -16 10 -48 13 -48 4 0 -9 -32 -6 -48 4 -7 4 -12 2 -12
-4 0 -7 -7 -7 -22 1 -31 17 -89 23 -138 15 -14 -2 -33 -4 -42 -5 -10 0 -18 -6
-18 -12 0 -5 5 -7 10 -4 6 3 10 2 10 -3 0 -6 -7 -13 -16 -16 -9 -3 -14 -12
-11 -19 3 -8 -4 -19 -14 -25 -10 -7 -19 -21 -19 -33 0 -13 -4 -18 -12 -13 -8
5 -9 2 -4 -11 5 -15 4 -16 -9 -5 -12 10 -15 9 -15 -6 0 -11 -10 -25 -22 -33
-22 -13 -23 -13 -5 6 14 16 14 20 2 20 -8 0 -12 -4 -9 -9 3 -4 -1 -11 -10 -14
-9 -3 -12 -12 -8 -22 5 -15 3 -15 -10 -4 -14 11 -18 10 -26 -4 -5 -10 -17 -19
-26 -20 -9 -1 -13 2 -10 8 3 5 -7 3 -23 -5 -21 -11 -34 -12 -47 -5 -14 8 -17
7 -12 -1 4 -6 2 -12 -3 -12 -6 -1 -15 -2 -19 -3 -5 0 -17 -9 -27 -19 -10 -10
-26 -16 -36 -14 -12 3 -16 0 -12 -9 3 -8 10 -11 17 -7 6 4 5 -1 -3 -10 -10
-13 -17 -14 -27 -7 -9 9 -11 7 -8 -8 3 -11 -2 -24 -13 -32 -15 -12 -16 -12 -5
0 19 22 14 32 -6 13 -11 -11 -16 -28 -14 -45 3 -22 0 -28 -14 -30 -11 0 -23
-2 -29 -3 -5 -2 -16 -3 -24 -4 -11 -1 -11 -4 0 -18 10 -11 10 -14 2 -9 -8 4
-13 2 -13 -4 0 -7 -7 -9 -16 -6 -14 5 -15 4 -5 -8 9 -10 9 -16 1 -21 -6 -4 -9
-13 -6 -21 3 -8 -1 -14 -9 -14 -18 0 -19 -12 -2 -29 10 -11 9 -13 -5 -8 -12 4
-18 1 -18 -9 0 -9 -5 -12 -12 -8 -9 5 -9 3 1 -9 11 -14 11 -18 -1 -22 -14 -6
-21 -35 -9 -35 3 0 6 -11 6 -25 0 -15 -6 -25 -15 -25 -13 0 -13 -1 0 -10 9 -6
11 -10 3 -10 -7 0 -10 -7 -7 -15 4 -8 1 -15 -6 -15 -7 0 -10 -7 -6 -15 3 -8 0
-15 -7 -15 -9 0 -8 -3 1 -9 11 -6 10 -10 -3 -15 -14 -5 -15 -9 -5 -21 8 -10 9
-15 2 -15 -6 0 -9 -7 -5 -16 3 -9 0 -20 -8 -25 -12 -7 -12 -9 0 -9 8 0 2 -11
-15 -27 -16 -15 -22 -24 -13 -21 13 5 16 2 12 -13 -3 -10 -9 -16 -14 -13 -5 3
-6 -2 -3 -10 4 -9 1 -16 -6 -16 -9 0 -9 -4 1 -17 8 -9 9 -14 3 -10 -7 4 -14
-2 -17 -13 -3 -11 -1 -20 4 -20 6 0 7 -6 1 -17 -7 -12 -5 -21 5 -32 11 -11 12
-16 4 -19 -8 -3 -7 -8 3 -16 9 -6 17 -23 18 -38 1 -16 5 -28 9 -28 4 0 9 -9
12 -21 4 -16 2 -19 -11 -15 -15 5 -15 4 -2 -7 8 -6 16 -18 18 -26 3 -12 0 -12
-12 -1 -15 12 -21 7 -17 -14 1 -4 -3 -14 -9 -21 -6 -7 -8 -29 -6 -48 5 -37
-17 -72 -27 -45 -3 7 -6 2 -7 -12 -1 -14 -4 -19 -7 -12 -8 21 -21 13 -16 -10
4 -19 3 -20 -7 -8 -10 13 -11 11 -7 -7 3 -13 -1 -24 -9 -27 -8 -3 -14 -13 -14
-21 0 -9 -4 -14 -8 -11 -5 3 -9 -1 -9 -9 0 -8 5 -11 11 -8 6 4 3 -3 -7 -15
-11 -11 -16 -26 -12 -31 3 -6 2 -11 -4 -11 -6 0 -8 -6 -5 -14 3 -8 0 -17 -5
-21 -6 -3 -8 -11 -5 -17 4 -7 2 -8 -5 -4 -9 6 -9 11 0 22 10 12 9 13 -5 8 -10
-4 -15 -13 -11 -22 7 -19 -15 -48 -25 -31 -4 6 -7 -2 -7 -17 0 -15 -6 -30 -12
-32 -9 -3 -9 -8 -1 -17 8 -10 6 -13 -7 -11 -10 0 -18 -4 -18 -11 0 -15 -15
-30 -15 -14 0 7 -5 9 -10 6 -6 -4 -8 -11 -5 -16 4 -5 1 -9 -5 -9 -6 0 -8 -4
-5 -10 8 -13 -19 -52 -31 -42 -4 4 -3 -1 4 -10 11 -14 10 -18 -7 -28 -12 -6
-21 -17 -21 -25 0 -8 -5 -15 -10 -15 -6 0 -8 -11 -6 -24 3 -19 1 -23 -11 -19
-10 4 -14 2 -10 -4 4 -6 2 -13 -3 -15 -6 -2 -12 -13 -13 -25 -1 -18 -4 -20
-16 -10 -12 10 -14 9 -8 -5 4 -13 1 -18 -11 -19 -10 0 -12 -3 -5 -6 9 -3 10
-10 3 -24 -8 -14 -7 -19 1 -19 8 0 8 -4 2 -12 -6 -7 -9 -21 -8 -31 3 -13 0
-15 -8 -8 -9 7 -12 -3 -10 -40 1 -39 -2 -49 -15 -49 -15 0 -15 -2 -2 -10 13
-8 12 -10 -3 -10 -10 0 -15 -4 -12 -10 3 -5 1 -10 -5 -10 -7 0 -8 -6 -1 -18 7
-14 6 -19 -4 -19 -8 0 -12 4 -9 9 10 15 -2 8 -20 -14 -14 -16 -15 -20 -3 -15
11 4 13 0 10 -14 -3 -10 -8 -17 -12 -15 -3 2 -15 -5 -26 -16 -20 -19 -20 -19
0 -12 13 5 8 -4 -14 -25 -21 -19 -29 -31 -20 -32 8 0 1 -6 -16 -14 -25 -11
-27 -13 -10 -18 17 -4 17 -5 3 -6 -10 0 -18 -8 -18 -17 0 -14 -2 -15 -17 -3
-15 13 -15 12 -5 -8 11 -19 9 -24 -10 -35 -13 -7 -27 -11 -31 -10 -5 1 -6 -2
-2 -8 3 -6 11 -7 17 -4 6 4 6 -1 -1 -14 -6 -11 -17 -22 -26 -26 -8 -3 -15 -15
-15 -26 0 -11 -7 -23 -15 -26 -12 -5 -13 -10 -5 -19 8 -10 6 -15 -10 -20 -18
-6 -19 -9 -8 -23 9 -10 9 -13 1 -9 -7 5 -17 -1 -23 -14 -8 -15 -8 -19 -1 -15
7 5 9 1 5 -8 -3 -9 -10 -16 -15 -16 -5 0 -9 -11 -9 -25 0 -14 -4 -25 -8 -25
-5 0 -7 -16 -6 -36 3 -30 1 -34 -11 -24 -11 9 -12 7 -8 -9 3 -12 1 -21 -5 -21
-6 0 -8 -9 -5 -20 3 -11 0 -20 -6 -20 -7 0 -10 -10 -7 -25 3 -15 1 -23 -5 -20
-5 4 -6 12 -2 18 4 7 0 6 -10 -2 -18 -15 -23 -26 -7 -16 6 3 10 2 10 -3 0 -6
-7 -12 -15 -16 -8 -3 -15 -15 -15 -26 0 -11 -5 -20 -11 -20 -5 0 -7 6 -3 13 4
6 3 9 -1 5 -5 -5 -9 -19 -11 -32 -2 -23 -52 -83 -66 -78 -4 1 -4 -5 -1 -14 4
-10 0 -20 -10 -25 -9 -6 -14 -18 -12 -30 3 -16 1 -18 -9 -10 -9 8 -13 7 -14
-4 -1 -8 -3 -22 -4 -30 -1 -8 -5 -15 -10 -15 -5 0 -6 -5 -2 -12 5 -8 2 -9 -9
-5 -9 3 -19 1 -23 -5 -4 -6 -3 -8 4 -4 6 4 10 -1 9 -13 0 -11 -6 -19 -11 -18
-6 1 -12 -8 -14 -21 -3 -17 -7 -21 -16 -13 -9 8 -12 5 -12 -12 1 -15 -4 -21
-14 -19 -12 3 -12 1 -3 -8 9 -10 5 -18 -14 -36 -14 -13 -21 -24 -14 -24 6 0
11 -4 11 -9 0 -5 -11 -8 -25 -7 -21 3 -23 1 -14 -16 9 -18 8 -18 -10 -9 -17
10 -20 9 -15 -4 4 -8 1 -15 -7 -15 -7 0 -10 -3 -6 -6 3 -4 -4 -15 -16 -26 -12
-11 -16 -17 -10 -13 9 4 11 1 7 -9 -3 -9 -11 -13 -18 -9 -7 4 -7 2 1 -7 8 -9
9 -19 3 -31 -7 -11 -7 -20 0 -24 5 -3 6 -15 0 -29 -4 -12 -4 -29 0 -36 5 -9 4
-20 -2 -27 -7 -9 -7 -13 1 -13 6 0 11 -6 11 -14 0 -8 6 -17 13 -19 8 -4 8 -6
-2 -6 -11 -1 -10 -5 5 -17 10 -8 13 -13 7 -9 -9 4 -11 1 -7 -9 3 -9 10 -16 15
-16 5 0 9 -9 9 -20 0 -11 6 -20 13 -20 8 0 7 -4 -3 -10 -13 -8 -13 -10 2 -10
9 0 20 -5 24 -12 5 -7 3 -8 -7 -3 -11 7 -12 6 -2 -6 7 -9 14 -24 16 -35 1 -10
6 -24 10 -30 3 -6 4 -14 0 -18 -10 -10 -10 -55 1 -49 5 4 7 -1 3 -10 -4 -11
-2 -14 9 -10 14 5 21 -22 7 -30 -5 -2 -2 -2 5 -1 11 3 13 -2 12 -21 -1 -3 8
-18 20 -32 16 -20 18 -28 8 -35 -10 -6 -10 -8 0 -8 6 0 12 -7 12 -16 0 -8 4
-13 9 -10 5 4 8 -2 7 -11 -2 -10 4 -24 11 -32 8 -8 12 -22 10 -33 -3 -10 -1
-16 3 -13 5 3 11 1 15 -5 3 -5 1 -10 -5 -10 -6 0 -8 -5 -5 -11 4 -6 13 -8 21
-5 12 4 12 2 4 -14 -9 -16 -7 -22 5 -26 9 -4 14 -12 12 -19 -3 -6 4 -17 15
-24 16 -10 17 -15 7 -27 -10 -12 -10 -15 2 -12 8 2 14 -5 14 -18 1 -22 20 -47
45 -57 11 -4 9 -6 -5 -6 -18 -1 -18 -3 4 -14 14 -6 26 -18 29 -26 3 -9 0 -11
-9 -7 -8 4 -5 0 6 -9 17 -14 18 -17 5 -25 -8 -5 -10 -10 -5 -10 6 0 17 6 24
13 10 10 11 8 5 -7 -6 -15 -4 -17 6 -11 9 5 11 4 6 -3 -4 -7 5 -23 21 -37 17
-15 21 -23 11 -19 -10 3 -18 11 -18 17 0 6 -3 7 -6 4 -11 -11 17 -37 40 -37
16 0 18 -2 7 -9 -11 -7 -10 -11 6 -20 11 -5 24 -7 28 -3 5 4 5 1 1 -6 -4 -7
-11 -10 -16 -7 -4 3 -6 -4 -3 -15 3 -11 10 -17 16 -13 6 4 8 0 4 -10 -4 -11
-2 -14 9 -10 9 3 14 -1 14 -12 0 -10 -5 -13 -12 -9 -7 4 -8 3 -4 -5 4 -6 11
-9 16 -6 4 3 14 -3 21 -12 10 -11 10 -14 2 -9 -9 5 -11 2 -6 -10 6 -15 7 -15
20 2 13 18 14 17 8 -7 -4 -16 -2 -30 4 -34 6 -3 8 -11 5 -17 -4 -7 -2 -8 5 -4
9 6 9 12 -1 24 -12 15 -11 15 4 4 9 -7 15 -22 13 -34 -4 -17 -2 -18 11 -7 9 8
14 8 12 1 -2 -6 6 -18 17 -26 l20 -16 -20 5 c-16 5 -16 3 2 -6 13 -7 23 -16
23 -21 0 -5 -5 -6 -12 -2 -7 4 -8 3 -4 -5 4 -6 12 -9 17 -6 5 4 9 1 9 -5 0 -6
4 -9 9 -5 5 3 13 0 17 -6 4 -8 3 -9 -4 -5 -7 4 -12 3 -12 -2 0 -5 12 -14 26
-20 14 -7 23 -16 19 -21 -3 -5 4 -13 15 -16 17 -5 19 -9 9 -21 -10 -12 -10
-15 2 -12 8 2 18 8 22 13 5 6 7 3 4 -6 -3 -9 2 -25 12 -35 9 -11 15 -28 13
-39 l-4 -20 16 20 c15 20 15 20 9 -3 -4 -18 -2 -21 12 -15 13 4 16 3 11 -5 -4
-7 -1 -12 9 -12 9 0 14 -4 11 -9 -3 -5 1 -11 9 -15 10 -3 15 1 16 12 0 13 3
11 9 -5 5 -13 16 -23 25 -23 9 0 27 -7 40 -16 14 -9 32 -13 41 -10 14 5 15 4
5 -8 -11 -13 -9 -15 9 -11 16 3 20 0 16 -11 -3 -8 -2 -12 4 -9 15 9 93 -19 97
-35 5 -17 53 -43 53 -29 0 6 6 4 14 -3 8 -7 11 -17 8 -23 -3 -5 3 -3 13 5 17
14 18 13 12 -3 -4 -11 -3 -16 3 -12 5 3 22 -5 37 -19 15 -14 31 -22 36 -19 5
3 13 0 17 -6 4 -7 20 -13 36 -15 18 -2 30 -10 33 -21 2 -14 5 -15 12 -4 7 11
9 11 9 1 0 -7 5 -10 10 -7 6 4 9 1 8 -7 -2 -7 3 -12 10 -10 8 1 11 -2 7 -8 -3
-6 -12 -7 -18 -3 -7 3 -4 -3 6 -14 9 -11 14 -22 11 -26 -7 -7 47 -63 58 -60 4
2 10 -6 13 -17 4 -11 11 -20 16 -20 6 0 7 5 3 12 -4 7 -3 8 4 4 6 -4 9 -13 5
-22 -3 -8 -2 -14 3 -13 22 4 44 -2 44 -12 0 -5 -6 -7 -12 -3 -9 5 -9 2 1 -9
15 -18 26 -23 16 -7 -3 6 -1 10 4 10 6 0 11 -5 11 -11 0 -5 5 -7 10 -4 6 3 10
1 10 -5 0 -6 5 -8 11 -4 8 4 9 -1 4 -17 -7 -22 -7 -22 9 -6 19 18 31 23 22 8
-3 -5 2 -15 11 -22 12 -10 14 -10 9 -1 -4 6 -2 12 3 12 6 0 11 -5 11 -11 0 -5
5 -7 10 -4 6 3 10 1 10 -5 0 -6 5 -8 11 -4 20 12 27 -17 12 -47 -8 -16 -18
-31 -24 -34 -10 -7 -13 -45 -3 -45 3 0 16 8 29 19 18 13 21 21 12 30 -8 8 -7
11 5 11 9 0 15 7 14 16 -1 18 39 30 49 14 3 -6 17 -10 31 -10 13 0 24 -5 24
-10 0 -6 3 -9 8 -9 24 4 62 -2 58 -9 -3 -5 1 -9 9 -10 8 -1 22 -3 30 -4 8 -1
15 -6 15 -11 0 -5 7 -7 15 -3 21 8 46 -4 38 -18 -4 -6 2 -4 12 4 10 8 16 10
12 4 -3 -6 3 -18 14 -27 10 -9 19 -12 19 -7 0 5 7 7 15 4 8 -4 12 -11 9 -16
-4 -6 3 -5 15 1 15 8 21 9 21 1 0 -6 5 -8 10 -5 6 4 8 10 5 15 -3 4 5 6 17 2
16 -4 20 -2 16 10 -5 11 0 15 15 14 12 -1 31 1 43 5 11 4 27 4 34 -1 7 -4 26
-4 41 0 17 5 31 5 34 -1 4 -5 14 -5 25 1 13 7 21 7 25 0 5 -8 11 -8 20 0 10 8
15 8 20 0 5 -8 10 -8 20 0 10 8 15 8 20 0 5 -8 11 -8 19 -1 7 6 16 8 20 4 10
-10 36 -13 36 -4 0 9 31 8 48 -3 7 -4 12 -2 12 4 0 6 5 8 12 4 18 -11 48 -12
48 -2 0 5 9 4 20 -2 11 -6 20 -7 20 -2 0 10 30 9 48 -2 7 -4 12 -2 12 4 0 6 5
8 12 4 15 -10 48 -13 48 -5 0 7 63 6 76 -1 5 -2 19 -3 32 -2 12 0 22 -3 22 -8
0 -5 5 -6 10 -3 6 4 7 11 4 17 -4 7 -2 8 5 4 6 -4 9 -11 6 -16 -3 -4 11 -10
30 -12 19 -2 35 0 35 5 0 5 6 5 13 -1 7 -6 18 -7 26 -3 8 5 26 5 41 1 15 -4
33 -4 40 0 7 4 25 4 40 0 15 -4 34 -4 43 1 10 6 18 5 22 -1 4 -7 13 -7 26 0
13 7 19 7 19 0 0 -5 12 -10 26 -10 17 0 23 -4 18 -12 -5 -9 -2 -9 9 1 9 7 17
9 17 3 0 -19 102 -34 128 -18 7 4 12 2 12 -5 0 -9 3 -10 11 -2 6 6 23 8 44 3
18 -4 39 -4 46 1 8 5 21 6 30 4 9 -3 22 1 29 10 9 11 17 12 32 4 16 -8 19 -8
13 1 -6 9 -2 9 14 1 15 -8 21 -9 21 -1 0 6 5 8 12 4 18 -11 48 -12 48 -2 0 5
9 4 20 -2 14 -8 20 -8 20 0 0 8 6 8 20 0 15 -8 20 -8 20 1 0 9 4 8 14 0 11
-10 17 -8 25 6 6 10 11 13 11 5 0 -10 5 -10 20 -2 11 6 25 8 30 5 5 -3 11 -1
14 4 3 4 23 5 45 1 25 -4 44 -3 50 3 8 8 11 7 11 -3 0 -10 3 -11 11 -3 6 6 25
7 49 3 24 -4 43 -3 49 3 8 8 11 7 11 -2 0 -7 5 -9 12 -5 6 4 41 6 79 5 41 -1
70 2 74 9 5 8 11 7 23 -2 13 -11 14 -11 7 1 -6 11 -4 13 8 8 9 -3 19 -2 22 3
6 9 24 8 43 -3 7 -5 12 -3 12 3 0 6 5 8 12 4 18 -11 48 -12 48 -2 0 5 9 4 20
-2 11 -6 20 -7 20 -2 0 10 30 9 48 -2 7 -4 12 -2 12 4 0 6 5 8 12 4 15 -10 48
-13 48 -5 0 3 17 5 37 4 21 -1 38 -2 38 -3 0 -1 10 -3 23 -4 12 -2 22 0 22 4
0 8 32 6 47 -3 6 -4 22 -3 35 2 14 5 31 6 38 1 7 -5 24 -4 36 0 13 5 26 5 28
1 3 -5 24 -5 46 -1 21 4 42 5 45 2 8 -8 45 -10 45 -2 0 8 32 6 47 -3 6 -4 22
-3 35 2 14 5 31 6 38 1 7 -5 24 -4 36 0 14 6 26 5 29 0 4 -7 13 -6 25 0 13 7
21 7 25 0 5 -8 11 -7 21 1 7 6 11 16 7 22 -3 6 -1 7 5 3 6 -4 8 -14 5 -24 -4
-13 -2 -13 10 3 8 11 14 22 12 25 -2 3 3 11 11 18 8 7 14 10 14 7 0 -3 7 -2
17 3 9 5 29 6 44 2 18 -5 36 -3 53 6 15 7 33 11 41 7 9 -3 15 1 15 8 0 9 3 10
11 2 6 -6 23 -8 45 -3 19 4 34 4 34 -1 0 -5 11 -5 24 1 16 6 28 5 36 -3 10 -9
11 -9 5 2 -6 11 -3 13 13 9 12 -4 20 -3 17 2 -3 4 2 10 10 14 8 3 15 0 15 -6
0 -9 3 -9 11 -1 6 6 25 7 50 3 24 -5 39 -3 39 3 0 5 5 5 13 -2 8 -6 16 -8 19
-5 4 4 339 8 358 4 36 -8 41 -7 37 4 -4 10 3 13 24 11 16 -1 29 2 29 7 0 6 7
5 15 -2 8 -7 27 -13 42 -14 16 -2 39 -8 51 -15 13 -7 30 -10 37 -7 8 3 17 1
20 -4 3 -5 13 -6 22 -3 12 5 14 3 9 -8 -4 -8 1 -3 12 11 15 18 18 29 11 42 -7
13 -6 18 2 18 9 0 8 4 0 14 -10 11 -8 17 6 25 10 6 13 11 6 11 -7 0 -10 7 -7
15 4 8 9 13 13 11 3 -2 5 29 3 70 -2 50 0 74 8 74 8 0 8 6 0 20 -9 16 -8 20 5
20 9 0 13 5 10 10 -3 6 -1 10 5 10 6 0 8 5 4 12 -5 9 -2 8 9 -1 15 -12 17 -12
11 4 -6 14 -4 16 6 10 8 -5 11 -4 7 2 -3 5 5 22 18 39 13 16 24 23 25 17 0 -7
-4 -13 -9 -13 -5 0 -12 -8 -15 -17 -5 -13 -1 -12 17 5 14 13 24 30 23 39 0 9
6 18 14 20 13 4 13 3 0 -7 -13 -10 -13 -11 0 -7 8 2 15 12 15 23 0 12 8 20 22
22 15 2 25 13 29 28 3 13 17 33 30 43 18 14 20 21 11 31 -7 7 -7 11 -2 8 11
-5 56 38 48 45 -2 3 2 18 10 34 8 15 12 34 10 41 -3 6 0 12 7 12 6 0 9 -4 5
-9 -3 -5 -1 -12 4 -15 5 -4 8 2 6 11 -1 10 3 24 9 32 6 8 16 28 21 45 6 18 17
30 25 28 11 -3 11 0 0 12 -9 12 -9 16 -1 16 7 0 9 5 5 12 -5 8 -2 9 10 5 14
-5 15 -3 6 13 -9 16 -8 18 6 13 14 -5 16 -1 12 20 -3 15 -2 24 2 22 5 -3 10 2
13 9 3 8 1 17 -6 20 -7 2 -4 5 6 5 10 1 16 5 13 10 -4 5 -3 16 0 25 5 14 9 14
22 4 13 -11 14 -10 5 7 -9 16 -7 29 7 58 10 20 14 37 8 37 -5 0 -2 7 6 16 9 8
13 21 9 27 -5 9 -3 9 8 0 12 -10 15 -8 15 7 0 10 -5 16 -11 13 -5 -4 -2 2 7
13 12 13 14 24 7 36 -6 11 -5 19 2 24 8 4 9 3 5 -4 -4 -7 -2 -12 5 -12 6 0 9
8 6 20 -3 14 0 20 10 20 12 0 13 3 4 14 -9 10 -8 16 4 26 8 7 15 23 15 35 0
12 10 30 23 39 12 9 15 14 7 11 -13 -6 -13 -5 0 7 8 7 15 18 16 23 2 31 18 74
24 70 5 -3 6 4 3 15 -3 12 0 20 7 20 9 0 9 4 -1 17 -8 9 -9 14 -3 10 7 -4 14
0 18 8 3 8 2 15 -3 15 -4 0 -8 7 -8 15 0 9 6 14 13 11 8 -3 11 2 9 16 -3 11 2
30 10 42 18 24 20 40 4 30 -6 -3 -3 6 7 21 14 21 15 28 4 35 -9 6 -6 10 10 15
21 7 21 8 6 17 -15 8 -15 11 -1 25 12 12 13 18 4 29 -9 11 -9 14 1 14 7 0 10
7 6 15 -3 8 -2 15 3 15 9 0 9 4 10 75 1 110 4 129 18 146 7 9 8 20 3 29 -5 8
-5 21 1 32 7 13 6 18 -2 18 -8 0 -8 4 -2 13 6 6 9 20 8 29 -2 10 2 15 10 12
14 -6 15 12 2 33 -4 6 -3 14 2 18 7 4 7 15 1 30 -5 14 -6 25 -2 25 5 0 7 13 6
30 -1 16 2 27 7 24 5 -3 9 2 9 10 0 9 5 16 11 16 5 0 7 -5 3 -12 -4 -7 -3 -8
5 -4 9 6 9 11 1 21 -7 8 -9 19 -5 25 6 9 9 137 4 165 -1 6 -1 14 0 19 1 5 -5
17 -14 26 -9 10 -15 27 -13 39 2 11 -6 27 -17 36 -11 9 -13 13 -5 9 10 -5 9 0
-4 14 -13 15 -15 22 -6 22 9 0 10 3 1 13 -8 10 -7 17 2 27 7 8 8 11 1 7 -7 -4
-14 3 -18 18 -4 14 -11 25 -16 25 -6 0 -10 5 -10 11 0 5 6 7 13 4 6 -4 1 3
-12 14 -13 12 -21 24 -18 28 4 3 -1 12 -11 20 -9 8 -11 11 -4 8 12 -6 12 -3 1
16 -7 13 -12 28 -11 32 1 4 -5 10 -13 13 -8 3 -12 11 -9 16 4 6 0 14 -7 19
-12 7 -11 9 1 9 11 1 10 4 -4 15 -12 9 -15 15 -7 15 9 0 10 4 4 13 -6 6 -9 20
-8 30 2 10 -1 14 -8 10 -6 -4 -8 0 -4 10 4 10 1 17 -5 17 -6 0 -8 3 -5 7 4 3
1 13 -6 21 -9 13 -9 14 1 8 18 -10 15 -2 -8 24 -14 16 -17 26 -9 30 7 5 5 9
-6 14 -11 4 -15 13 -12 26 3 11 1 18 -3 15 -5 -3 -14 11 -20 30 -6 19 -16 33
-20 30 -5 -3 -7 4 -5 15 2 11 0 20 -6 20 -5 0 -8 3 -8 8 4 21 -2 32 -13 26 -9
-5 -9 -2 1 9 9 11 10 17 2 17 -6 0 -11 9 -11 20 0 11 -5 20 -11 20 -8 0 -8 4
0 14 9 10 8 15 -4 20 -8 3 -15 10 -15 16 0 6 6 8 13 5 6 -4 4 0 -7 9 -10 8
-15 19 -11 25 3 6 1 11 -5 11 -6 0 -8 4 -5 10 3 6 1 10 -5 10 -6 0 -8 4 -5 10
3 5 0 10 -7 10 -9 0 -9 3 2 10 11 7 11 10 2 10 -7 0 -11 4 -8 9 3 5 -1 11 -9
15 -8 3 -12 12 -9 21 4 8 0 23 -7 32 -12 14 -12 15 0 9 9 -6 9 -2 -2 15 -16
23 -17 28 -17 50 0 5 -4 8 -9 4 -5 -3 -13 0 -17 6 -4 8 -3 9 4 5 8 -5 12 0 12
13 0 12 -4 21 -9 21 -5 0 -11 7 -14 14 -4 11 -1 13 11 9 14 -5 13 -3 -2 9 -10
8 -16 20 -12 26 3 6 2 13 -3 17 -5 3 -8 14 -6 25 2 11 -1 23 -7 26 -7 5 -8 2
-3 -6 5 -9 4 -11 -4 -6 -9 6 -9 11 1 24 10 12 10 14 1 8 -12 -7 -17 15 -16 62
1 6 -3 12 -9 12 -5 0 -7 4 -4 8 3 5 -4 26 -16 48 -19 35 -19 37 -2 24 18 -14
18 -14 1 6 -9 11 -14 24 -10 27 3 4 2 7 -4 7 -13 0 -12 32 1 41 4 4 -2 17 -15
30 -15 15 -17 21 -6 16 9 -3 17 -2 17 3 0 6 -5 10 -11 10 -5 0 -8 4 -4 9 3 5
0 13 -6 16 -5 4 -8 13 -5 21 3 8 -1 17 -10 21 -8 3 -13 12 -10 19 3 8 1 14 -5
14 -6 0 -7 4 -4 10 3 5 2 10 -3 10 -5 0 -9 6 -10 13 -4 36 -11 67 -17 78 -4 6
-1 16 6 21 11 8 11 9 -3 5 -19 -6 -33 29 -14 37 6 2 3 5 -6 5 -10 1 -18 6 -18
12 0 5 4 7 10 4 6 -3 7 1 4 9 -3 9 -10 16 -15 16 -11 0 -12 27 -1 33 4 2 2 2
-5 1 -16 -4 -24 21 -10 35 8 8 7 11 -4 11 -10 0 -14 10 -14 33 0 17 -2 37 -4
42 -5 9 -7 17 -14 49 -2 8 -9 21 -16 30 -7 9 -10 16 -6 16 5 0 0 10 -11 22
-10 12 -13 18 -6 14 6 -4 12 -2 12 4 0 6 -7 13 -15 16 -11 5 -13 10 -5 19 8 9
6 14 -6 19 -13 5 -14 9 -5 20 9 11 9 16 0 22 -8 5 -9 3 -4 -6 5 -9 4 -11 -3
-6 -8 5 -8 15 -1 33 7 20 6 28 -3 35 -10 6 -10 8 0 8 6 0 12 10 12 21 0 18 2
20 16 9 8 -8 14 -9 12 -4 -5 18 12 74 22 74 6 0 8 -6 4 -12 -6 -10 -3 -9 8 0
9 8 15 19 12 26 -3 7 3 19 13 27 16 12 17 12 6 -2 -10 -13 -10 -16 2 -16 7 0
14 3 13 6 -3 27 4 42 16 38 10 -4 14 0 13 14 -1 10 -6 19 -12 20 -5 0 -1 4 10
9 16 7 17 9 3 9 -9 1 -20 6 -24 13 -4 6 -3 8 4 4 6 -3 14 -2 17 4 4 6 3 10 -2
9 -4 -1 -14 -1 -22 0 -11 1 -11 4 0 18 10 11 10 14 2 9 -8 -4 -13 -1 -13 9 0
9 -4 13 -10 10 -9 -6 -15 17 -10 40 1 6 -1 7 -5 3 -7 -6 -55 35 -55 47 0 3 -8
13 -17 23 -10 10 -24 28 -32 40 -8 11 -19 18 -25 15 -6 -3 -8 -3 -4 2 4 4 3
16 -3 27 -8 16 -13 17 -25 7 -12 -10 -13 -9 -8 6 5 13 4 16 -4 11 -8 -5 -10
-1 -5 10 5 14 3 16 -11 11 -10 -4 -15 -3 -11 3 3 6 -3 10 -14 10 -11 0 -23 5
-27 12 -5 7 -3 8 6 3 9 -5 11 -4 6 4 -6 9 -11 9 -22 0 -12 -10 -13 -9 -7 7 6
17 5 18 -12 4 -11 -9 -16 -10 -11 -2 4 7 2 12 -4 12 -6 0 -8 5 -5 10 3 6 1 10
-5 10 -6 0 -8 5 -4 12 4 7 3 8 -5 4 -6 -4 -9 -13 -5 -19 3 -7 -1 -4 -9 6 -9
11 -22 15 -33 11 -16 -5 -16 -4 -4 5 13 10 8 15 -12 12 -4 0 -5 5 -2 13 3 8 0
17 -7 22 -8 4 -10 3 -5 -4 12 -20 -5 -13 -26 11 -11 12 -17 17 -14 10 4 -6 2
-15 -4 -18 -6 -4 -10 -3 -9 2 1 4 1 14 0 22 -1 11 -4 11 -18 0 -11 -10 -14
-10 -9 -1 4 7 2 12 -8 12 -8 0 -16 5 -18 10 -2 6 -13 12 -26 13 -13 1 -21 6
-18 14 3 7 0 15 -6 19 -7 4 -8 3 -4 -4 4 -7 1 -12 -8 -12 -8 0 -18 5 -21 10
-4 6 -11 8 -16 5 -5 -4 -9 -1 -9 4 0 6 -5 11 -11 11 -6 0 -8 -7 -5 -16 5 -14
4 -15 -7 -5 -11 9 -17 8 -27 -4 -14 -17 -30 -20 -30 -4 0 5 5 7 12 3 7 -4 8
-3 4 4 -4 6 -14 8 -24 5 -9 -3 -14 -3 -10 2 13 14 -11 45 -30 38 -9 -3 -14 -3
-10 2 10 10 -43 51 -60 47 -8 -2 -11 1 -7 7 3 6 -1 11 -9 11 -9 0 -16 5 -16
11 0 8 -4 8 -13 0 -10 -8 -17 -7 -27 2 -10 10 -11 9 -5 -3 5 -9 -1 -7 -15 5
-14 12 -20 14 -15 5 4 -8 -3 -5 -16 6 -13 12 -30 19 -36 17 -7 -3 -13 1 -13 8
0 7 -3 9 -7 6 -3 -4 -13 -1 -21 6 -9 6 -13 7 -10 2 4 -6 -3 -11 -15 -12 -12 0
-16 1 -9 4 6 3 12 10 12 16 0 5 -3 8 -6 4 -4 -3 -13 1 -21 9 -8 8 -19 12 -24
9 -5 -4 -9 -1 -9 5 0 6 -5 8 -10 5 -6 -4 -9 -1 -8 7 2 7 -3 12 -11 10 -7 -1
-19 2 -25 8 -7 5 -16 7 -19 3 -4 -3 -7 0 -8 8 0 8 -4 6 -9 -6 -7 -15 -9 -16
-9 -4 -1 9 -9 23 -18 30 -11 10 -14 10 -9 2 11 -20 -4 -15 -29 9 -12 12 -33
22 -46 23 -34 3 -53 9 -61 20 -5 6 -8 4 -8 -4 0 -11 -3 -10 -13 3 -7 10 -20
16 -28 15 -7 -2 -25 3 -39 11 -14 7 -26 11 -27 9 -1 -2 -10 3 -20 11 -10 8
-25 15 -33 15 -8 0 -14 7 -12 15 2 12 0 12 -11 -2 -12 -15 -14 -15 -26 4 -7
11 -8 17 -2 13 6 -3 11 -1 11 4 0 6 -9 11 -20 11 -13 0 -18 5 -14 15 4 10 2
13 -8 10 -8 -3 -21 2 -29 12 -12 16 -12 17 2 6 13 -10 16 -10 16 0 0 8 -6 14
-14 15 -7 1 -20 3 -28 4 -8 1 -15 6 -15 12 0 6 -4 5 -9 -3 -7 -11 -10 -9 -16
8 -3 11 -15 21 -25 21 -10 0 -21 4 -24 9 -4 5 4 7 16 4 13 -3 20 -3 17 1 -3 3
-19 8 -35 10 -16 2 -38 7 -48 12 -15 6 -17 4 -11 -7 7 -12 6 -12 -7 -1 -9 8
-14 20 -11 28 3 8 0 14 -7 14 -9 0 -9 4 1 17 8 9 9 14 2 10 -15 -10 -22 13
-12 41 5 13 5 22 -2 22 -6 0 -6 7 1 20 8 14 8 20 0 20 -7 0 -8 6 -1 18 7 13 6
23 -1 30 -9 9 -8 12 5 12 11 0 14 5 10 17 -4 10 -2 14 5 9 7 -4 8 2 2 23 -5
20 -4 38 6 55 7 15 9 24 4 21 -15 -9 -12 2 6 19 8 9 11 16 5 16 -7 0 -7 8 -1
24 5 14 7 35 5 46 -3 16 -1 19 8 11 10 -7 12 -3 11 17 0 15 3 30 8 33 14 9 17
63 4 71 -8 6 -8 8 1 8 20 0 36 39 23 55 -8 10 -8 15 1 21 8 4 9 3 5 -4 -4 -7
-2 -12 3 -12 6 0 11 3 11 8 0 4 9 13 20 19 17 11 18 10 13 -5 -6 -15 -5 -15
10 -3 16 12 17 12 11 -5 -4 -10 -4 -16 1 -12 4 4 14 1 22 -7 16 -16 27 -59 13
-50 -11 7 -23 -12 -27 -44 -5 -47 -6 -50 -20 -55 -7 -3 -13 -11 -13 -18 0 -9
3 -9 11 2 9 12 10 12 5 -3 -3 -10 -6 -21 -6 -23 0 -3 -6 -2 -12 2 -9 5 -9 2 1
-9 7 -9 9 -17 4 -17 -5 0 -9 -9 -10 -19 -2 -24 26 -36 33 -16 4 8 10 12 15 9
5 -3 9 -2 8 3 -1 4 -1 10 1 13 1 3 4 16 6 30 2 13 10 28 17 32 6 4 8 8 3 8 -4
0 -1 12 9 26 9 15 12 23 5 19 -8 -5 -8 -1 1 13 7 12 18 18 24 15 5 -3 4 0 -2
8 -17 17 -16 29 1 29 8 0 18 5 22 12 4 7 3 8 -4 4 -7 -4 -12 -2 -12 3 0 6 5
11 10 11 6 0 10 11 10 25 0 19 4 23 18 18 14 -6 15 -4 4 9 -10 13 -10 17 2 21
9 4 13 15 11 27 -4 19 -2 20 12 8 15 -12 15 -11 4 10 -10 20 -9 22 9 22 20 0
20 1 6 16 -18 17 -21 28 -6 19 6 -3 10 1 10 10 0 9 5 13 11 9 8 -4 9 1 4 16
-5 17 -4 21 6 15 9 -6 11 -2 6 14 -4 18 -3 20 8 11 11 -9 13 -6 11 14 -2 14 2
24 8 23 6 -1 10 6 9 16 0 12 4 17 13 13 10 -4 14 0 12 10 -2 12 6 17 31 19 30
3 32 1 15 -8 -25 -14 -44 -39 -37 -51 4 -5 1 -6 -4 -3 -6 4 -10 -4 -10 -18 0
-35 14 -41 37 -13 18 22 35 80 31 106 -1 6 3 12 8 12 5 0 11 12 13 28 2 17 8
26 17 24 12 -3 12 0 2 12 -11 13 -10 15 8 11 18 -3 20 -1 11 15 -9 16 -7 18
10 15 12 -2 18 0 14 6 -3 5 -1 16 5 23 6 7 9 22 6 34 -3 16 0 19 12 15 11 -4
14 -2 9 5 -4 8 0 12 10 12 16 0 16 1 -2 15 -21 16 -23 17 35 -1 11 -4 11 -8 3
-16 -8 -8 -7 -15 6 -25 11 -9 11 -12 2 -7 -10 5 -8 0 4 -15 20 -22 20 -22 0
-15 -19 7 -19 6 0 -8 12 -9 17 -21 13 -32 -4 -9 -2 -16 3 -16 6 0 10 -11 10
-25 0 -14 5 -25 11 -25 8 0 7 -6 -2 -17 -8 -10 -9 -14 -2 -10 6 4 14 3 18 -3
3 -5 0 -10 -7 -10 -8 -1 -5 -7 7 -16 11 -8 19 -17 18 -19 -10 -17 0 -27 11
-12 11 14 15 15 20 5 3 -7 4 -1 2 14 -2 17 1 25 7 21 7 -4 8 1 3 13 -5 10 -9
26 -10 34 -4 29 -18 50 -30 43 -6 -4 -5 1 3 10 11 14 11 17 0 17 -11 0 -11 2
1 10 8 5 10 10 3 10 -6 0 -10 8 -8 18 1 9 -3 23 -9 31 -9 12 -8 13 4 6 11 -7
10 -2 -4 19 -10 16 -13 26 -8 22 7 -4 6 5 -1 23 -6 17 -16 27 -21 23 -6 -3 -5
1 1 9 10 12 10 18 1 27 -9 9 -9 12 0 12 10 0 10 5 1 21 -8 16 -8 20 1 14 9 -6
9 -3 1 12 -7 15 -7 23 2 32 12 12 17 40 17 94 0 15 4 27 10 27 5 0 10 5 10 11
0 5 -4 7 -10 4 -5 -3 -10 -1 -10 4 0 6 7 11 16 11 8 0 12 5 9 10 -3 6 3 10 14
10 11 0 23 5 27 11 4 8 9 7 15 -2 6 -11 9 -10 15 4 3 9 10 17 16 17 5 0 7 -4
4 -8 -3 -5 1 -9 9 -9 8 0 13 3 11 6 -2 3 6 15 17 26 11 11 17 15 13 8 -3 -6
-1 -15 6 -19 7 -4 10 -4 6 1 -10 10 10 45 25 45 7 0 6 -4 -3 -10 -9 -6 -10
-10 -3 -10 7 0 17 9 23 20 6 11 19 20 28 20 23 0 72 23 72 33 0 5 5 5 10 2 6
-3 10 2 10 12 0 11 3 14 8 7 5 -9 11 -8 20 2 7 8 10 14 7 14 -4 0 0 7 9 15 8
8 18 15 22 15 5 0 3 -5 -4 -12 -7 -7 -12 -17 -12 -22 0 -6 8 1 18 17 10 15 22
24 25 20 4 -3 7 -1 7 6 0 7 5 9 13 5 9 -6 9 -4 -1 8 -10 13 -10 18 -1 24 8 4
9 3 5 -4 -5 -8 -2 -10 9 -6 13 5 13 9 3 22 -8 9 -8 13 -2 9 16 -9 44 36 39 63
-4 18 -2 20 11 9 12 -10 13 -9 8 5 -4 11 -1 16 12 16 18 1 18 1 1 11 -16 9
-16 12 -2 26 12 12 13 18 4 29 -7 9 -8 14 -1 14 5 0 8 9 5 20 -3 12 0 20 6 20
7 0 10 4 7 9 -3 4 -1 22 4 39 5 20 5 34 -1 38 -6 4 -6 10 0 18 6 7 8 16 4 20
-12 12 -6 88 8 97 12 7 11 9 -1 9 -11 0 -12 2 -2 8 13 9 22 101 10 108 -4 3
-3 16 2 29 7 18 6 25 -3 25 -8 0 -8 3 2 9 8 5 11 16 8 26 -4 9 -3 14 2 11 5
-3 11 1 15 9 3 8 0 15 -6 15 -8 0 -9 3 -2 10 7 7 8 29 4 55 -4 24 -3 42 1 40
4 -3 9 2 13 10 3 8 0 15 -7 15 -7 0 -4 5 6 11 14 8 16 14 6 25 -8 10 -9 14 0
14 9 0 9 5 1 20 -8 14 -8 20 0 20 8 0 8 6 0 20 -8 14 -8 20 0 20 8 0 8 6 0 20
-8 14 -8 20 0 20 8 0 8 6 0 20 -8 14 -8 20 0 20 8 0 8 6 0 20 -6 12 -7 20 -1
20 10 0 9 19 -2 38 -5 7 -3 12 3 12 8 0 8 6 0 20 -8 14 -8 20 0 20 8 0 8 6 0
20 -9 16 -8 22 4 26 8 3 19 3 25 0 5 -3 12 0 14 6 4 10 6 10 6 0 1 -7 6 -10
11 -7 6 3 10 -1 10 -10 0 -9 3 -14 8 -11 4 2 16 -3 27 -11 16 -13 17 -15 3
-10 -26 9 -22 -6 9 -34 14 -13 23 -18 19 -11 -4 6 -2 12 3 12 6 0 11 -8 11
-17 0 -10 5 -25 11 -33 8 -12 9 -9 4 10 -5 18 -4 21 4 11 8 -13 12 -13 28 0
16 12 17 12 6 -2 -7 -9 -9 -20 -5 -24 4 -5 2 -5 -4 -2 -6 3 -11 1 -11 -6 0 -7
14 -12 32 -12 25 0 31 3 31 22 0 12 -4 19 -8 17 -5 -3 -5 -10 -2 -16 5 -7 2
-8 -5 -4 -7 5 -10 14 -7 22 3 8 2 14 -3 14 -15 0 -51 37 -43 45 4 5 -1 5 -10
2 -13 -4 -18 -1 -18 11 -1 20 -27 58 -35 50 -3 -3 1 -11 10 -18 8 -7 15 -17
15 -22 0 -6 -9 0 -19 13 -10 13 -17 32 -16 41 3 15 1 16 -16 8 -15 -9 -19 -7
-20 7 -1 10 -1 22 0 26 1 5 -3 6 -9 2 -5 -3 -10 1 -10 9 0 9 -5 16 -11 16 -5
0 -7 4 -4 10 3 6 -1 7 -10 4 -11 -4 -14 -2 -9 9 6 17 -28 41 -42 29 -5 -4 -2
1 5 11 11 14 11 17 -2 17 -9 0 -24 16 -33 36 -13 27 -19 32 -26 22 -7 -9 -8
-8 -4 6 4 10 1 26 -6 34 -9 11 -9 14 -1 9 6 -4 14 -3 18 3 3 5 1 10 -6 10 -8
0 -9 4 0 13 8 10 7 17 -1 25 -7 7 -8 12 -3 12 6 0 10 11 10 25 0 14 -3 25 -6
25 -4 0 -10 7 -13 16 -4 10 -2 13 6 8 7 -5 8 -3 2 7 -9 16 -12 30 -17 88 -2
22 -7 44 -12 48 -4 5 -5 2 0 -6 6 -10 4 -12 -4 -7 -9 6 -9 11 -1 21 8 9 8 15
0 20 -7 4 -7 12 0 26 6 10 7 19 2 19 -9 0 -11 8 -14 55 -1 14 -6 25 -10 25 -4
0 -8 11 -8 25 0 14 -6 25 -12 25 -10 0 -10 2 -1 8 7 4 9 13 4 21 -10 16 -2 53
9 46 5 -3 12 -1 15 5 5 8 11 7 21 -1 11 -9 14 -9 14 0 0 9 5 9 20 1 15 -8 20
-8 20 1 0 8 4 8 15 -1 8 -7 15 -9 15 -5 0 4 6 2 14 -4 11 -9 16 -9 22 0 5 9
10 9 18 -2 6 -8 18 -14 26 -14 8 1 21 -4 29 -9 8 -6 16 -10 18 -8 1 1 4 2 6 1
19 -6 37 -6 37 1 0 4 9 6 20 3 11 -3 20 0 20 6 0 7 9 6 24 -4 18 -12 26 -13
31 -4 6 8 10 8 16 -2 5 -8 9 -9 9 -3 0 7 11 9 25 6 24 -4 29 6 24 44 0 4 4 10
10 13 6 4 7 12 1 21 -8 12 -10 12 -10 1 0 -9 -4 -10 -12 -4 -7 6 -21 9 -31 8
-10 -2 -14 1 -10 7 4 7 -2 9 -15 6 -12 -4 -22 -2 -22 4 0 6 -7 8 -15 4 -9 -3
-20 3 -27 14 -14 21 -34 28 -22 8 4 -7 -5 -2 -19 11 -33 30 -36 42 -4 15 l22
-19 -19 22 c-10 12 -23 21 -30 20 -6 -1 -10 3 -9 9 1 6 -8 10 -20 10 -12 -1
-22 4 -22 11 0 6 -4 15 -9 20 -5 5 -6 3 -2 -4 4 -7 2 -13 -3 -13 -6 0 -14 0
-18 0 -5 0 -8 6 -8 13 -1 6 -7 11 -14 9 -7 -1 -20 3 -29 10 -13 11 -15 11 -8
-2 4 -8 -6 0 -22 19 -21 25 -31 31 -37 21 -5 -8 -4 -11 3 -6 6 3 13 2 16 -3 4
-5 -2 -8 -11 -7 -10 2 -18 8 -18 14 0 7 -4 11 -8 10 -12 -4 -29 30 -22 42 3 6
2 10 -4 10 -11 0 -9 26 4 37 4 4 5 3 1 -4 -3 -6 -2 -14 4 -18 5 -3 10 2 10 12
0 10 7 27 15 37 15 20 15 20 16 0 0 -10 3 -13 6 -7 3 9 10 10 24 3 13 -7 19
-7 19 0 0 5 5 10 11 10 5 0 7 -6 3 -12 -4 -7 3 -4 16 7 13 11 21 15 17 9 -3
-6 0 -11 8 -11 8 0 12 4 9 8 -3 5 7 11 21 15 13 3 23 9 20 13 -2 4 6 7 18 6
31 -3 48 5 40 18 -4 6 0 8 10 4 9 -3 18 0 21 9 3 9 10 13 15 10 5 -4 8 1 7 10
-1 9 -11 21 -22 27 -17 9 -17 9 -6 -5 11 -14 10 -16 -7 -11 -14 3 -21 1 -21
-8 0 -11 -2 -11 -10 1 -7 11 -12 12 -21 3 -6 -6 -18 -9 -25 -6 -8 3 -14 -1
-14 -8 0 -11 -3 -11 -10 1 -8 13 -10 12 -10 -4 0 -15 -3 -16 -14 -7 -10 9 -16
9 -21 1 -5 -8 -11 -8 -19 -1 -9 7 -16 7 -23 0 -8 -8 -13 -8 -17 0 -5 8 -13 8
-28 0 -16 -9 -19 -8 -13 2 6 9 3 11 -9 6 -10 -4 -19 -1 -22 8 -4 10 -11 12
-22 6 -10 -4 -28 -5 -42 -1 -14 4 -33 3 -42 -2 -10 -5 -19 -4 -23 2 -4 6 -11
8 -16 5 -5 -4 -9 1 -9 9 0 8 -4 17 -9 20 -5 4 -7 -4 -5 -16 3 -17 1 -16 -7 5
-6 15 -15 25 -19 22 -5 -3 -12 0 -16 6 -4 7 -3 9 4 5 6 -3 13 -2 17 4 3 5 1
10 -5 10 -6 0 -8 5 -5 10 3 6 1 10 -6 10 -8 0 -8 5 2 18 7 9 9 14 5 10 -5 -5
-16 2 -25 14 -17 25 -23 48 -13 47 31 -5 43 35 14 46 -7 2 -11 1 -8 -3 2 -4 0
-14 -6 -22 -8 -13 -9 -12 -5 1 3 9 0 22 -6 29 -9 10 -9 11 1 6 8 -5 12 0 12
12 0 12 -9 22 -21 25 -14 4 -20 11 -16 21 3 8 -1 17 -10 20 -8 4 -13 13 -10
20 3 8 -2 20 -11 28 -16 12 -16 11 -2 -6 14 -18 14 -18 -6 -6 -14 8 -21 22
-19 36 1 16 -2 21 -13 16 -12 -4 -14 -1 -9 13 7 16 5 16 -10 4 -16 -12 -17
-12 -6 2 7 9 10 18 7 22 -3 3 4 3 17 0 14 -4 20 -2 16 5 -4 5 -3 12 1 14 5 1
0 12 -11 23 -11 11 -16 13 -12 5 7 -12 6 -13 -7 -3 -8 7 -19 9 -23 5 -5 -4 -5
-2 -2 5 4 6 1 14 -5 16 -10 4 -10 6 0 6 10 1 10 5 -2 17 -9 8 -21 12 -27 8 -7
-4 -10 -3 -7 2 3 5 -3 17 -13 26 -17 16 -18 16 -23 0 -3 -9 -4 -5 -2 11 3 23
1 25 -12 15 -13 -11 -14 -9 -7 12 7 24 6 24 -7 6 -12 -15 -17 -16 -23 -6 -5 9
-4 11 3 6 7 -4 12 -2 12 3 0 6 -7 11 -15 11 -7 0 -18 6 -22 13 -4 6 -17 12
-28 12 -12 0 -19 6 -18 15 2 8 -7 22 -20 29 -20 13 -21 13 -8 -2 7 -10 9 -17
3 -17 -13 0 -24 29 -15 43 4 7 -2 5 -12 -3 -17 -14 -18 -13 -11 5 4 11 4 16 0
12 -4 -4 -13 1 -21 11 -10 11 -12 12 -8 2 5 -11 3 -11 -7 1 -7 9 -22 19 -33
22 -15 3 -16 5 -3 6 11 1 15 7 10 23 -3 14 -2 19 6 14 7 -4 15 0 18 9 5 12 9
13 21 4 11 -10 13 -10 11 1 -2 8 6 16 17 18 11 2 23 9 27 16 5 7 8 7 8 -3 0
-11 3 -11 15 -1 8 6 19 9 24 6 5 -4 15 2 21 11 11 17 11 17 6 1 -8 -26 16 -18
36 12 10 14 18 20 18 14 0 -5 -6 -16 -12 -23 -11 -11 -9 -12 8 -3 12 6 25 8
29 4 5 -4 5 -1 1 6 -4 6 -2 12 4 12 6 0 8 4 5 10 -7 11 23 2 45 -14 13 -10 13
-9 0 8 -14 18 -14 19 7 7 20 -10 22 -9 16 5 -5 14 -2 16 16 11 17 -4 21 -2 17
9 -4 12 -2 12 14 4 15 -8 20 -8 20 2 0 10 2 10 9 -1 6 -9 11 -10 15 -2 4 6 12
8 18 5 6 -4 6 1 -1 14 -12 23 -38 35 -46 21 -4 -5 -11 -6 -18 -2 -17 10 -58
10 -64 -1 -4 -5 -1 -6 7 -1 9 5 11 4 6 -4 -6 -9 -11 -9 -22 0 -11 9 -14 9 -14
-1 0 -7 -7 -10 -15 -7 -8 4 -17 2 -20 -4 -4 -5 -11 -7 -16 -4 -5 4 -18 8 -30
10 -15 3 -19 0 -16 -10 4 -10 -1 -12 -19 -9 -14 3 -24 0 -24 -7 0 -8 -4 -8
-14 0 -10 9 -16 9 -21 1 -5 -7 -11 -8 -19 -1 -7 6 -18 6 -26 1 -7 -4 -24 -4
-36 0 -14 6 -26 5 -29 0 -4 -6 -13 -4 -21 5 -9 8 -19 13 -24 10 -4 -3 -10 4
-13 15 -3 11 -13 20 -22 20 -9 0 -30 11 -46 24 -16 14 -38 23 -49 21 -11 -2
-20 0 -20 6 0 5 -10 9 -21 9 -12 0 -28 8 -35 18 -13 16 -14 16 -9 -3 4 -15 3
-15 -7 3 -8 17 -18 22 -35 19 -13 -2 -26 0 -30 6 -4 6 -1 7 7 2 9 -5 11 -4 6
3 -4 7 -14 12 -22 12 -9 0 -12 5 -8 12 5 7 2 9 -8 6 -8 -4 -21 2 -28 12 -8 11
-18 16 -23 13 -6 -3 -16 2 -24 12 -9 14 -13 15 -13 4 -1 -10 -3 -9 -11 4 -5 9
-15 17 -22 17 -18 0 -68 46 -59 55 4 5 1 5 -6 1 -11 -6 -11 -11 0 -24 7 -9 -2
-5 -19 8 -18 13 -33 28 -33 32 0 5 -4 6 -10 3 -5 -3 -10 -2 -10 4 0 6 -7 8
-15 5 -8 -4 -17 1 -21 10 -3 9 -11 13 -17 9 -6 -4 -8 0 -4 10 3 9 1 19 -5 23
-7 4 -8 3 -4 -4 4 -7 2 -12 -3 -12 -6 0 -11 5 -11 10 0 6 -6 10 -14 10 -8 0
-16 5 -18 10 -2 6 -13 12 -26 13 -12 0 -22 5 -22 10 0 5 -9 7 -20 4 -11 -3
-23 0 -27 5 -3 7 -1 8 5 4 7 -4 12 -5 12 -1 0 3 -11 10 -25 15 -14 5 -25 17
-25 25 0 9 -4 13 -10 10 -5 -3 -10 -1 -10 5 0 6 -5 8 -10 5 -6 -4 -7 -11 -4
-17 4 -7 2 -8 -5 -4 -6 4 -9 12 -6 17 4 5 0 9 -8 9 -8 0 -22 9 -31 19 -10 11
-26 18 -37 16 -10 -2 -19 0 -19 5 0 5 -7 6 -17 3 -10 -4 -14 -2 -9 5 4 7 -1
10 -13 7 -11 -2 -22 3 -26 13 -6 15 -8 15 -15 -3 -8 -18 -9 -18 -10 5 -1 23
-2 23 -10 5 -5 -11 -9 -15 -9 -9 -1 7 -12 15 -26 18 -14 4 -25 13 -25 22 0 8
-3 13 -7 11 -5 -3 -29 -2 -55 3 -36 5 -48 4 -48 -6 0 -7 -5 -16 -12 -20 -6 -4
-8 -3 -5 3 4 6 0 14 -9 17 -10 4 -13 2 -8 -6 5 -8 2 -9 -9 -5 -10 3 -17 2 -17
-4 0 -6 -7 -6 -20 1 -15 8 -20 8 -20 -1 0 -8 -4 -9 -13 0 -10 8 -17 7 -25 -1
-9 -9 -12 -9 -12 2 0 7 -3 10 -6 7 -7 -7 -64 21 -75 37 -4 4 -21 10 -39 12
-19 2 -36 6 -38 9 -3 3 -11 0 -19 -6 -10 -9 -13 -8 -13 2 0 9 -3 10 -11 2 -6
-6 -25 -7 -49 -3 -24 4 -43 3 -49 -3 -8 -8 -11 -8 -11 1 0 6 -7 9 -15 6 -8 -4
-12 -10 -9 -15 3 -5 -2 -6 -11 -2 -10 3 -21 0 -26 -8 -5 -9 -9 -10 -9 -2 0 8
-9 9 -30 3 -18 -5 -32 -5 -35 1 -4 5 -13 5 -23 0 -11 -6 -24 -6 -35 0 -13 8
-17 6 -17 -6 0 -9 -4 -13 -10 -10 -5 3 -16 3 -22 -1 -16 -10 -48 -13 -48 -4 0
3 -11 6 -25 6 -14 0 -25 -6 -25 -12 0 -7 -5 -16 -12 -20 -6 -4 -8 -3 -5 3 4 6
0 14 -9 17 -10 4 -13 2 -8 -6 5 -8 2 -9 -9 -5 -10 3 -17 2 -17 -4 0 -6 -7 -6
-19 1 -13 7 -22 7 -26 0 -4 -7 -12 -7 -25 0 -13 7 -19 6 -24 -5 -3 -8 -12 -15
-20 -15 -10 0 -13 -6 -9 -17 3 -12 0 -10 -11 5 -10 12 -21 20 -26 17 -5 -3
-13 2 -18 12 -12 20 -35 25 -80 17 -22 -3 -32 -10 -29 -18 3 -7 -1 -13 -8 -13
-7 0 -11 7 -9 16 3 9 -1 6 -7 -6 -13 -24 -40 -39 -35 -20 1 7 1 9 -2 4 -7 -14
-62 -38 -72 -32 -6 3 -10 -1 -10 -10 0 -10 -5 -13 -12 -9 -6 4 -16 1 -22 -7
-6 -8 -18 -14 -26 -14 -8 0 -15 -5 -15 -12 0 -6 -4 -15 -9 -20 -5 -4 -6 -3 -3
3 4 7 0 15 -9 18 -8 3 -12 2 -9 -4 3 -6 -1 -10 -10 -10 -9 0 -13 -4 -10 -10 3
-6 -1 -7 -9 -4 -9 4 -18 0 -22 -9 -3 -9 -12 -13 -20 -10 -8 3 -14 0 -14 -5 0
-6 -10 -12 -22 -14 -13 -2 -22 -9 -20 -17 3 -12 0 -12 -12 -1 -13 10 -16 10
-16 -5 0 -9 -6 -15 -12 -12 -20 7 -50 -12 -41 -26 4 -7 0 -7 -10 2 -11 9 -17
10 -17 2 0 -6 -7 -11 -15 -11 -8 0 -15 -4 -15 -9 0 -5 -13 -8 -30 -7 -21 2
-27 -1 -20 -9 7 -9 1 -12 -24 -10 -19 1 -33 -2 -30 -7 3 -4 -4 -8 -16 -8 -12
0 -19 -4 -16 -9 4 -5 -5 -8 -18 -7 -17 2 -23 -1 -19 -10 3 -10 -3 -14 -20 -14
-14 0 -31 -9 -38 -20 -8 -12 -24 -22 -36 -23 -17 -1 -20 -4 -11 -15 9 -10 8
-12 -2 -10 -8 2 -15 -3 -16 -9 -3 -26 -5 -28 -12 -15 -7 10 -12 8 -25 -6 -14
-15 -14 -19 -2 -19 8 0 11 5 8 10 -3 6 -1 7 6 3 18 -12 3 -25 -24 -21 -15 1
-24 -2 -22 -9 5 -15 -15 -34 -30 -29 -7 3 -13 -2 -13 -10 0 -9 -5 -19 -12 -23
-7 -5 -8 -3 -3 7 8 12 6 12 -8 0 -9 -7 -17 -22 -17 -32 0 -11 -5 -19 -11 -19
-5 0 -8 4 -4 9 3 5 1 13 -5 16 -6 4 -9 1 -8 -7 2 -7 -3 -12 -10 -10 -10 2 -10
-2 -3 -17 8 -15 7 -18 -7 -17 -9 0 -17 -5 -18 -11 -1 -7 -2 -16 -3 -19 0 -4
-9 0 -18 7 -10 7 -15 9 -10 4 4 -4 -1 -18 -10 -29 -18 -20 -17 -20 2 -6 18 14
19 14 7 -2 -7 -9 -22 -15 -32 -13 -11 2 -19 1 -17 -3 1 -4 -2 -7 -8 -7 -5 0
-10 11 -10 25 0 14 -4 31 -8 38 -5 7 -5 12 0 11 23 -4 35 2 29 16 -3 10 1 15
12 16 9 0 12 3 5 5 -7 3 -9 12 -6 20 3 7 9 12 13 9 5 -3 7 6 4 20 -3 20 -1 23
13 18 16 -6 16 -5 4 10 -9 12 -10 17 -2 17 7 0 9 5 5 12 -5 8 -2 9 10 5 14 -5
15 -3 6 13 -8 15 -7 18 2 15 14 -5 38 37 38 67 0 10 5 18 11 18 6 0 9 7 5 15
-3 8 -1 15 5 15 6 0 7 5 3 12 -5 8 -2 9 9 5 9 -3 16 -3 15 1 -1 4 2 14 5 22 3
8 7 24 9 35 3 13 10 19 23 17 19 -2 19 -2 2 9 -17 10 -17 11 0 27 11 9 17 25
15 34 -2 13 1 16 13 11 15 -5 16 -3 6 15 -9 18 -9 21 3 16 8 -3 17 0 22 7 4 8
3 10 -4 5 -7 -4 -12 -2 -12 3 0 6 5 11 11 11 5 0 8 4 4 9 -3 5 -1 12 5 16 5 3
10 1 10 -6 0 -8 4 -8 15 1 8 7 15 18 15 24 0 6 -5 4 -11 -4 -9 -13 -10 -13 -6
0 2 9 13 14 27 12 17 -3 21 0 17 12 -4 9 -3 16 2 16 5 0 11 11 13 25 3 14 1
25 -4 25 -6 0 -8 6 -5 14 3 8 -1 17 -9 20 -8 3 -14 1 -14 -5z m2270 -164 c11
-13 10 -14 -4 -9 -9 3 -16 10 -16 15 0 13 6 11 20 -6z m-2530 -119 c0 -2 -7
-7 -16 -10 -8 -3 -12 -2 -9 4 6 10 25 14 25 6z m4447 -2702 c-3 -3 -12 -4 -19
-1 -8 3 -5 6 6 6 11 1 17 -2 13 -5z m-432 -3464 c10 -11 16 -20 13 -20 -3 0
-13 9 -23 20 -10 11 -16 20 -13 20 3 0 13 -9 23 -20z m-4215 -150 c0 -5 -5
-10 -11 -10 -5 0 -7 5 -4 10 3 6 8 10 11 10 2 0 4 -4 4 -10z m-1590 -3023 c0
-2 -9 -12 -20 -22 -24 -21 -27 -14 -4 9 15 15 24 20 24 13z m-50 -83 c0 -8
-19 -13 -24 -6 -3 5 1 9 9 9 8 0 15 -2 15 -3z"/>
<path d="M10386 15718 c3 -5 10 -6 15 -3 13 9 11 12 -6 12 -8 0 -12 -4 -9 -9z"/>
<path d="M12088 15623 c7 -3 16 -2 19 1 4 3 -2 6 -13 5 -11 0 -14 -3 -6 -6z"/>
<path d="M9270 15429 c0 -5 5 -7 10 -4 6 3 10 8 10 11 0 2 -4 4 -10 4 -5 0
-10 -5 -10 -11z"/>
<path d="M12818 15228 c5 -5 16 -8 23 -6 8 3 3 7 -10 11 -17 4 -21 3 -13 -5z"/>
<path d="M13421 14637 c-6 -6 -11 -16 -11 -21 0 -6 5 -4 10 4 8 13 10 12 10
-4 0 -12 5 -16 15 -12 8 3 15 2 15 -3 0 -4 10 -7 23 -5 12 1 30 3 39 3 11 1
15 6 12 16 -5 12 -10 13 -20 4 -11 -9 -15 -7 -20 5 -5 12 -10 14 -19 6 -10 -8
-15 -8 -21 1 -5 8 -3 10 7 4 8 -5 10 -4 6 0 -12 13 -34 14 -46 2z"/>
<path d="M8905 14471 c-3 -5 -2 -12 3 -15 5 -3 9 1 9 9 0 17 -3 19 -12 6z"/>
<path d="M8586 13844 c-5 -14 -4 -15 9 -4 17 14 19 20 6 20 -5 0 -12 -7 -15
-16z"/>
<path d="M8342 13328 c5 -15 38 -19 38 -4 0 6 -9 12 -21 13 -11 1 -19 -3 -17
-9z"/>
<path d="M8320 13293 c0 -9 3 -13 7 -10 3 4 12 2 20 -4 18 -15 17 -1 -1 17
-19 18 -26 18 -26 -3z"/>
<path d="M8300 13276 c0 -8 4 -17 9 -20 5 -4 7 3 4 14 -6 23 -13 26 -13 6z"/>
<path d="M9740 10680 c0 -5 5 -10 11 -10 5 0 7 5 4 10 -3 6 -8 10 -11 10 -2 0
-4 -4 -4 -10z"/>
<path d="M10291 10664 c0 -11 3 -14 6 -6 3 7 2 16 -1 19 -3 4 -6 -2 -5 -13z"/>
<path d="M10670 9819 c0 -5 5 -7 10 -4 6 3 10 8 10 11 0 2 -4 4 -10 4 -5 0
-10 -5 -10 -11z"/>
<path d="M10300 9749 c0 -5 5 -7 10 -4 6 3 10 8 10 11 0 2 -4 4 -10 4 -5 0
-10 -5 -10 -11z"/>
<path d="M12765 9701 c-3 -5 -2 -12 3 -15 5 -3 9 1 9 9 0 17 -3 19 -12 6z"/>
<path d="M8550 7969 c0 -5 5 -7 10 -4 6 3 10 8 10 11 0 2 -4 4 -10 4 -5 0 -10
-5 -10 -11z"/>
<path d="M7465 5160 c3 -5 8 -10 11 -10 2 0 4 5 4 10 0 6 -5 10 -11 10 -5 0
-7 -4 -4 -10z"/>
<path d="M8030 4239 c0 -5 5 -7 10 -4 6 3 10 8 10 11 0 2 -4 4 -10 4 -5 0 -10
-5 -10 -11z"/>
<path d="M14331 4027 c-8 -10 -7 -14 2 -14 8 0 14 6 14 14 0 7 -1 13 -2 13 -2
0 -8 -6 -14 -13z"/>
<path d="M14268 3953 c7 -3 16 -2 19 1 4 3 -2 6 -13 5 -11 0 -14 -3 -6 -6z"/>
</g>
</svg>
